<svg width="57" height="60" viewBox="0 0 78 82" fill="none" xmlns="http://www.w3.org/2000/svg">
<path d="M39 11.1428L72.775 28.7178V63.8678L39 81.4428L5.22501 63.8678V28.7178L39 11.1428Z" fill="white"/>
<path d="M74.6858 64.1058C75.0137 63.9327 75.2189 63.5923 75.2189 63.2216V29.7034C75.2189 28.9502 74.4179 28.4674 73.7519 28.8191L58.2795 36.9894L41.8731 45.6529C41.5453 45.8261 41.3401 46.1664 41.3401 46.5372V80.0554C41.3401 80.8085 42.1411 81.2914 42.807 80.9397L74.6858 64.1058Z" fill="#0F0C0C"/>
<path d="M74.6858 64.1058C75.0137 63.9327 75.2189 63.5923 75.2189 63.2216V29.7034C75.2189 28.9502 74.4179 28.4674 73.7519 28.8191L58.2795 36.9894L41.8731 45.6529C41.5453 45.8261 41.3401 46.1664 41.3401 46.5372V80.0554C41.3401 80.8085 42.1411 81.2914 42.807 80.9397L74.6858 64.1058Z" stroke="black"/>
<path d="M36.4657 45.653C36.7936 45.8261 36.9988 46.1664 36.9988 46.5372V80.0554C36.9988 80.8085 36.1978 81.2914 35.5318 80.9397L20.0594 72.7694L3.65304 64.1059C3.32516 63.9327 3.12 63.5924 3.12 63.2216V29.7034C3.12 28.9503 3.92099 28.4674 4.58695 28.8191L36.4657 45.653Z" fill="#0F0C0C"/>
<path d="M36.4657 45.653C36.7936 45.8261 36.9988 46.1664 36.9988 46.5372V80.0554C36.9988 80.8085 36.1978 81.2914 35.5318 80.9397L20.0594 72.7694L3.65304 64.1059C3.32516 63.9327 3.12 63.5924 3.12 63.2216V29.7034C3.12 28.9503 3.92099 28.4674 4.58695 28.8191L36.4657 45.653Z" stroke="black"/>
<path d="M72.0732 26.7387C72.6221 26.4531 72.6221 25.705 72.0732 25.4193L39.3814 8.40778C39.1438 8.28416 38.8562 8.28416 38.6186 8.40778L5.92683 25.4193C5.37791 25.705 5.37791 26.4531 5.92683 26.7387L38.6186 43.7503C38.8562 43.8739 39.1438 43.8739 39.3814 43.7503L72.0732 26.7387Z" fill="#0F0C0C"/>
<path d="M72.0732 26.7387C72.6221 26.4531 72.6221 25.705 72.0732 25.4193L39.3814 8.40778C39.1438 8.28416 38.8562 8.28416 38.6186 8.40778L5.92683 25.4193C5.37791 25.705 5.37791 26.4531 5.92683 26.7387L38.6186 43.7503C38.8562 43.8739 39.1438 43.8739 39.3814 43.7503L72.0732 26.7387Z" stroke="black"/>
<rect width="18.8969" height="1.52654" rx="0.763272" transform="matrix(0.887503 0.460801 -0.491287 0.870998 30.6895 21.1655)" fill="white"/>
<rect width="15.9093" height="25.9241" transform="matrix(0.886937 0.461889 -0.492404 0.870367 45.0681 0)" fill="#EEEEEE"/>
<rect width="20.7393" height="0.265155" rx="0.132577" transform="matrix(0.492404 -0.870367 0.886937 0.461889 34.0498 20.552)" fill="black"/>
<rect width="10.6062" height="0.259241" rx="0.12962" transform="matrix(0.886937 0.461889 -0.492404 0.870367 47.1646 1.67603)" fill="black"/>
<rect width="10.6062" height="0.259241" rx="0.12962" transform="matrix(0.886937 0.461889 -0.492404 0.870367 35.0376 23.1112)" fill="black"/>
<rect width="20.7393" height="0.265155" rx="0.132577" transform="matrix(0.492404 -0.870367 0.886937 0.461889 47.2197 27.4105)" fill="black"/>
<path d="M42.2659 19.7743L42.2423 19.8972L41.2815 19.9963L41.0412 20.4211L43.4004 21.6497L43.7349 21.3506L43.8375 21.4942L43.2387 22.5525L43.1287 22.4953L43.0513 22.0313L40.795 20.8562L40.5606 21.2705L40.9975 22.0975L40.903 22.1835L40.016 21.7216L40.1862 21.5669L41.3365 19.5337L41.379 19.3124L42.2659 19.7743ZM45.0863 19.2868L44.4875 20.3452L44.3775 20.2879L44.3001 19.8239L42.1502 18.7043L41.8212 19.0017L41.7187 18.8582L42.3174 17.7998L42.4274 17.8571L42.5028 18.3245L44.6492 19.4423L44.9837 19.1433L45.0863 19.2868ZM43.3487 15.8147C43.4182 15.6916 43.5161 15.5593 43.6422 15.4176C43.7696 15.2736 43.8744 15.175 43.9566 15.1216L44.6449 15.4801L44.57 15.6124C44.0779 15.6325 43.732 15.819 43.5324 16.1718C43.4458 16.325 43.4124 16.4894 43.4325 16.6651C43.4514 16.8372 43.5222 17.0018 43.6447 17.1587C43.7648 17.3144 43.9254 17.4446 44.1264 17.5493C44.3582 17.67 44.5896 17.7454 44.8205 17.7756C45.0528 17.8034 45.2676 17.7755 45.4649 17.692C45.6635 17.6061 45.8232 17.4564 45.9441 17.2429C46.0557 17.0456 46.0645 16.6836 45.9705 16.1569L46.1999 16.1412L46.3448 17.0459C46.327 17.1478 46.2998 17.2419 46.2633 17.328C46.2305 17.4131 46.1878 17.502 46.1353 17.5949C45.9974 17.8386 45.815 18.023 45.588 18.1482C45.361 18.2734 45.1128 18.3334 44.8432 18.3282C44.5712 18.3218 44.3004 18.2484 44.0308 18.108C43.7541 17.9639 43.5433 17.7519 43.3984 17.4722C43.2512 17.1912 43.1765 16.8984 43.1743 16.5937C43.1697 16.2879 43.2278 16.0282 43.3487 15.8147ZM47.4535 14.7778L47.556 14.9214L46.9572 15.9797L46.8472 15.9225L46.7698 15.4585L44.6199 14.3389L44.2909 14.6363L44.1884 14.4927L44.7871 13.4344L44.8971 13.4917L44.9725 13.9591L47.1189 15.0769L47.4535 14.7778ZM48.4679 13.3095L48.1114 13.9396L46.103 14.2909L45.7569 12.727L45.2304 12.9756L45.1279 12.8321L45.6577 11.8956L45.7677 11.9528L46.1726 13.7863L47.9347 13.4645L48.3654 13.1659L48.4679 13.3095ZM49.8335 10.8956L48.6518 12.9845L48.5418 12.9272L48.4644 12.4632L46.3145 11.3436L45.9855 11.641L45.8829 11.4975L47.0253 9.47821L47.0678 9.25696L47.8838 9.6819L47.8602 9.80482L46.9978 9.89209L46.4542 10.853L47.5789 11.4387L47.8881 10.8921L47.5778 10.4014L47.6388 10.2935L48.7173 10.8552L48.7095 11.0314L48.0497 10.9717L47.7385 11.5218L48.9235 12.1389L49.4592 11.1919L49.0223 10.3649L49.1168 10.2789L50.0038 10.7408L49.8335 10.8956ZM49.6731 6.68143L49.6495 6.80435L48.6887 6.90342L48.4484 7.32816L50.8076 8.55678L51.1422 8.25774L51.2447 8.40127L50.6459 9.45964L50.5359 9.40236L50.4585 8.93839L48.2022 7.76334L47.9678 8.17763L48.4047 9.00464L48.3102 9.09061L47.4232 8.62872L47.5935 8.47397L48.7437 6.4408L48.7862 6.21954L49.6731 6.68143Z" fill="black"/>
</svg>
